<svg width="200" height="60" viewBox="0 0 156 50" fill="none" xmlns="http://www.w3.org/2000/svg">
<g clip-path="url(#clip0_11_51)">
<path fill-rule="evenodd" clip-rule="evenodd" d="M22.2188 39.8208L32.1484 34.1344V41.428C32.1484 41.428 32.1484 42.6952 31.2387 42.8918C28.3841 43.5023 25.3988 44.085 22.2188 44.085C18.9644 44.085 15.8509 43.6433 12.9835 42.8293C12.2891 42.6952 12.2891 41.5552 12.2891 41.5552V34.1344L22.2188 39.8208Z" fill="white"/>
<path fill-rule="evenodd" clip-rule="evenodd" d="M39.5259 28.182H40.7559C41.8091 31.7987 42.5855 43.2988 42.5855 44.0133C42.5855 44.0781 42.5676 44.1452 42.5522 44.2076H37.727C37.7099 44.1439 37.7005 44.0788 37.6988 44.0133C37.7014 43.3011 38.4804 31.801 39.5259 28.182Z" fill="#54B48C"/>
<path fill-rule="evenodd" clip-rule="evenodd" d="M22.2188 11.9852L42.7188 23.5038L39.3106 25.814L25.0759 22.9049C24.8402 21.6815 23.7229 20.7288 22.2982 20.7288C21.5336 20.7288 20.8004 21.0029 20.2597 21.4908C19.7191 21.9787 19.4154 22.6404 19.4154 23.3304C19.4154 24.0203 19.7191 24.6821 20.2597 25.1699C20.8004 25.6578 21.5336 25.9319 22.2982 25.9319C22.6768 25.9286 23.0505 25.8546 23.3958 25.7145C23.7412 25.5744 24.0506 25.3713 24.3046 25.1179L36.6354 27.6362L22.2188 36.5902L1.71875 23.5038L22.2188 11.9852V11.9852Z" fill="white"/>
</g>
<path d="M47.025 44V25.925H59.4375L59.425 29H50.6875V33.3875H58.275V36.4H50.6625V40.8875L59.5625 40.9V44H47.025ZM67.5334 44.25C65.8001 44.25 64.4501 43.6542 63.4834 42.4625C62.5167 41.2625 62.0334 39.5958 62.0334 37.4625C62.0334 36.1125 62.2292 34.9417 62.6209 33.95C63.0126 32.9583 63.5917 32.1917 64.3584 31.65C65.1251 31.1 66.0626 30.825 67.1709 30.825C67.6376 30.825 68.0709 30.8792 68.4709 30.9875C68.8792 31.0875 69.2501 31.2292 69.5834 31.4125C69.9167 31.5958 70.2084 31.8083 70.4584 32.05C70.7084 32.2917 70.9126 32.55 71.0709 32.825V25.425H74.7334V44H72.0834L71.6709 41.35C71.5542 41.7083 71.3917 42.0583 71.1834 42.4C70.9751 42.7417 70.7084 43.0542 70.3834 43.3375C70.0584 43.6125 69.6584 43.8333 69.1834 44C68.7167 44.1667 68.1667 44.25 67.5334 44.25ZM68.3334 41.625C69.2501 41.625 69.9334 41.3042 70.3834 40.6625C70.8417 40.0208 71.0709 38.9375 71.0709 37.4125C71.0626 36.5292 70.9584 35.7958 70.7584 35.2125C70.5584 34.6292 70.2584 34.1958 69.8584 33.9125C69.4667 33.6208 68.9667 33.475 68.3584 33.475C67.5667 33.475 66.9084 33.7792 66.3834 34.3875C65.8584 34.9875 65.5959 35.9958 65.5959 37.4125C65.5959 38.8542 65.8417 39.9167 66.3334 40.6C66.8251 41.2833 67.4917 41.625 68.3334 41.625ZM85.4951 44.25C84.6035 44.25 83.7285 44.1375 82.8701 43.9125C82.0118 43.6875 81.2285 43.35 80.5201 42.9C79.8118 42.45 79.2243 41.8875 78.7576 41.2125C78.2993 40.5375 78.0243 39.7458 77.9326 38.8375H81.6701C81.7951 39.3875 82.0326 39.85 82.3826 40.225C82.7326 40.6 83.1743 40.8875 83.7076 41.0875C84.241 41.2875 84.8326 41.3875 85.4826 41.3875C86.1493 41.3875 86.7576 41.3042 87.3076 41.1375C87.8576 40.9708 88.2993 40.7208 88.6326 40.3875C88.966 40.0458 89.1326 39.6208 89.1326 39.1125C89.1326 38.6542 88.9951 38.2792 88.7201 37.9875C88.4535 37.6958 88.091 37.4583 87.6326 37.275C87.1743 37.0917 86.6535 36.9417 86.0701 36.825L82.9451 36.1875C81.5785 35.9292 80.4951 35.3875 79.6951 34.5625C78.8951 33.7292 78.4826 32.6208 78.4576 31.2375C78.4493 30.1042 78.7493 29.125 79.3576 28.3C79.9743 27.4667 80.8076 26.825 81.8576 26.375C82.916 25.925 84.0993 25.7 85.4076 25.7C86.966 25.7 88.2743 25.9458 89.3326 26.4375C90.3993 26.9208 91.2076 27.5792 91.7576 28.4125C92.316 29.2375 92.6035 30.1583 92.6201 31.175H88.9576C88.891 30.5417 88.6993 30.0375 88.3826 29.6625C88.066 29.2875 87.6576 29.0167 87.1576 28.85C86.666 28.6833 86.1035 28.6 85.4701 28.6C84.9868 28.6 84.5451 28.6542 84.1451 28.7625C83.7535 28.8708 83.4201 29.025 83.1451 29.225C82.8701 29.4167 82.6576 29.6458 82.5076 29.9125C82.3576 30.1792 82.2826 30.4792 82.2826 30.8125C82.2826 31.3375 82.4576 31.7625 82.8076 32.0875C83.1576 32.4125 83.8118 32.6792 84.7701 32.8875L87.8701 33.525C88.9785 33.7417 89.8576 34.0625 90.5076 34.4875C91.166 34.9125 91.6576 35.3917 91.9826 35.925C92.316 36.4583 92.5326 37.0042 92.6326 37.5625C92.741 38.1125 92.7951 38.6208 92.7951 39.0875C92.7951 40.0625 92.4868 40.9417 91.8701 41.725C91.2618 42.5 90.4118 43.1167 89.3201 43.575C88.2285 44.025 86.9535 44.25 85.4951 44.25ZM95.9541 48.025V31.075H99.6166L99.6291 32.9375C99.8208 32.6292 100.054 32.35 100.329 32.1C100.612 31.8417 100.925 31.6167 101.267 31.425C101.608 31.2333 101.979 31.0875 102.379 30.9875C102.779 30.8792 103.2 30.825 103.642 30.825C104.6 30.825 105.454 31.0625 106.204 31.5375C106.954 32.0042 107.542 32.7292 107.967 33.7125C108.4 34.6875 108.617 35.9292 108.617 37.4375C108.617 39.0042 108.383 40.2917 107.917 41.3C107.458 42.3 106.825 43.0417 106.017 43.525C105.208 44.0083 104.296 44.25 103.279 44.25C102.862 44.25 102.471 44.1917 102.104 44.075C101.737 43.9667 101.396 43.8125 101.079 43.6125C100.771 43.4125 100.492 43.1833 100.242 42.925C99.9999 42.6583 99.7874 42.3708 99.6041 42.0625V48.025H95.9541ZM102.404 41.575C103.196 41.575 103.858 41.2458 104.392 40.5875C104.933 39.9292 105.204 38.8875 105.204 37.4625C105.204 36.2125 104.946 35.2375 104.429 34.5375C103.921 33.8292 103.246 33.475 102.404 33.475C101.462 33.475 100.758 33.8583 100.292 34.625C99.8333 35.3833 99.6041 36.3292 99.6041 37.4625C99.6041 38.1875 99.7041 38.8625 99.9041 39.4875C100.112 40.1125 100.421 40.6167 100.829 41C101.246 41.3833 101.771 41.575 102.404 41.575ZM115.094 44.25C114.269 44.25 113.527 44.0958 112.869 43.7875C112.21 43.4792 111.69 43.0333 111.306 42.45C110.923 41.8583 110.731 41.1417 110.731 40.3C110.731 38.8833 111.26 37.8083 112.319 37.075C113.377 36.3333 115.048 35.95 117.331 35.925L118.944 35.9V35.125C118.944 34.5333 118.769 34.0792 118.419 33.7625C118.077 33.4375 117.544 33.2792 116.819 33.2875C116.285 33.2958 115.777 33.4208 115.294 33.6625C114.819 33.9042 114.494 34.325 114.319 34.925H111.281C111.331 33.9917 111.602 33.225 112.094 32.625C112.585 32.0167 113.252 31.5667 114.094 31.275C114.944 30.975 115.906 30.825 116.981 30.825C118.306 30.825 119.369 30.9917 120.169 31.325C120.969 31.65 121.548 32.1208 121.906 32.7375C122.265 33.3458 122.444 34.0708 122.444 34.9125V44H119.394L119.094 41.775C118.652 42.7083 118.098 43.3542 117.431 43.7125C116.773 44.0708 115.994 44.25 115.094 44.25ZM116.319 41.85C116.652 41.85 116.973 41.7917 117.281 41.675C117.598 41.55 117.877 41.3875 118.119 41.1875C118.369 40.9792 118.569 40.7458 118.719 40.4875C118.869 40.2292 118.944 39.9625 118.944 39.6875V37.775L117.631 37.8C117.023 37.8083 116.456 37.8833 115.931 38.025C115.406 38.1583 114.981 38.3792 114.656 38.6875C114.34 38.9958 114.181 39.4125 114.181 39.9375C114.181 40.5375 114.39 41.0083 114.806 41.35C115.223 41.6833 115.727 41.85 116.319 41.85ZM131.587 30.825C132.671 30.825 133.604 31.0458 134.387 31.4875C135.179 31.9292 135.8 32.525 136.25 33.275C136.708 34.025 136.971 34.8625 137.037 35.7875H134C133.941 35.4458 133.821 35.1083 133.637 34.775C133.454 34.4333 133.196 34.1542 132.862 33.9375C132.529 33.7125 132.112 33.6 131.612 33.6C130.762 33.6 130.071 33.9292 129.537 34.5875C129.012 35.2375 128.75 36.2292 128.75 37.5625C128.75 38.8208 129.008 39.8208 129.525 40.5625C130.041 41.2958 130.762 41.6625 131.687 41.6625C132.179 41.6625 132.587 41.5417 132.912 41.3C133.246 41.0583 133.504 40.7708 133.687 40.4375C133.871 40.0958 133.987 39.7792 134.037 39.4875H137C136.941 40.3792 136.683 41.1875 136.225 41.9125C135.766 42.6292 135.141 43.2 134.35 43.625C133.566 44.0417 132.646 44.25 131.587 44.25C130.387 44.25 129.316 43.9833 128.375 43.45C127.433 42.9167 126.691 42.1542 126.15 41.1625C125.616 40.1625 125.35 38.9708 125.35 37.5875C125.35 36.2542 125.608 35.0792 126.125 34.0625C126.641 33.0458 127.366 32.2542 128.3 31.6875C129.241 31.1125 130.337 30.825 131.587 30.825ZM142.926 38.375C142.917 39.0333 143.022 39.6083 143.238 40.1C143.455 40.5833 143.767 40.9583 144.176 41.225C144.592 41.4833 145.092 41.6125 145.676 41.6125C146.301 41.6125 146.847 41.4792 147.313 41.2125C147.788 40.9458 148.117 40.5083 148.301 39.9H151.588C151.447 40.8167 151.08 41.6 150.488 42.25C149.905 42.9 149.197 43.3958 148.363 43.7375C147.53 44.0792 146.663 44.25 145.763 44.25C144.488 44.25 143.363 43.9833 142.388 43.45C141.422 42.9083 140.667 42.1458 140.126 41.1625C139.584 40.1792 139.313 39.0208 139.313 37.6875C139.313 36.3958 139.559 35.2333 140.051 34.2C140.542 33.1583 141.255 32.3375 142.188 31.7375C143.13 31.1292 144.259 30.825 145.576 30.825C146.892 30.825 147.997 31.1042 148.888 31.6625C149.788 32.2125 150.463 32.9833 150.913 33.975C151.372 34.9583 151.601 36.0958 151.601 37.3875V38.375H142.926ZM142.913 36.2H148.188C148.188 35.6833 148.092 35.2083 147.901 34.775C147.709 34.3417 147.417 34 147.026 33.75C146.642 33.5 146.159 33.375 145.576 33.375C145.009 33.375 144.526 33.5125 144.126 33.7875C143.734 34.0542 143.434 34.4042 143.226 34.8375C143.017 35.2708 142.913 35.725 142.913 36.2Z" fill="white"/>
<defs>
<clipPath id="clip0_11_51">
<rect width="41" height="37" fill="white" transform="translate(3 9)"/>
</clipPath>
</defs>
</svg>
