<svg width="200" height="53" viewBox="0 0 200 53" fill="none" xmlns="http://www.w3.org/2000/svg">
<g clip-path="url(#clip0_11_51)">
<path fill-rule="evenodd" clip-rule="evenodd" d="M22.7148 40.3653L34.4507 32.9179V42.4702C34.4507 42.4702 34.4507 44.1299 33.3755 44.3874C30.0017 45.1869 26.4733 45.9501 22.7148 45.9501C18.8684 45.9501 15.1886 45.3717 11.7996 44.3056C10.9788 44.1299 10.9788 42.6368 10.9788 42.6368V32.9179L22.7148 40.3653Z" fill="#14281D"/>
<path fill-rule="evenodd" clip-rule="evenodd" d="M43.1702 25.1222H44.6239C45.8687 29.859 46.7863 44.9204 46.7863 45.8563C46.7863 45.9411 46.7651 46.0289 46.747 46.1107H41.0441C41.0239 46.0273 41.0127 45.942 41.0107 45.8563C41.0138 44.9235 41.9345 29.8621 43.1702 25.1222Z" fill="#54B48C"/>
<path fill-rule="evenodd" clip-rule="evenodd" d="M22.7148 3.90968L46.9438 18.9953L42.9157 22.0209L26.0917 18.2109C25.813 16.6088 24.4926 15.361 22.8086 15.361C21.905 15.361 21.0384 15.7199 20.3994 16.3589C19.7604 16.9979 19.4014 17.8645 19.4014 18.7682C19.4014 19.6718 19.7604 20.5385 20.3994 21.1774C21.0384 21.8164 21.905 22.1754 22.8086 22.1754C23.2561 22.171 23.6978 22.0741 24.106 21.8906C24.5141 21.7071 24.8798 21.4411 25.1801 21.1093L39.7539 24.4075L22.7148 36.1344L-1.51432 18.9953L22.7148 3.90968Z" fill="#14281D"/>
</g>
<path d="M54.0625 46V20.695H70.7925L70.775 24.3525H58.35V31.44H69.3225V35.045H58.315V42.29L71.0375 42.3075V46H54.0625ZM82.2383 46.35C79.8467 46.35 77.9683 45.5275 76.6033 43.8825C75.2383 42.2375 74.5558 39.8983 74.5558 36.865C74.5558 34.975 74.83 33.3358 75.3783 31.9475C75.9383 30.5475 76.755 29.4683 77.8283 28.71C78.9133 27.94 80.255 27.555 81.8533 27.555C82.6 27.555 83.2767 27.6483 83.8833 27.835C84.5017 28.01 85.05 28.2433 85.5283 28.535C86.0067 28.8267 86.4092 29.1475 86.7358 29.4975C87.0742 29.8475 87.3367 30.1975 87.5233 30.5475V19.995H91.7933V46H88.6433L88.1708 42.29C88.0308 42.7217 87.8208 43.1767 87.5408 43.655C87.2725 44.1217 86.905 44.5592 86.4383 44.9675C85.9833 45.3758 85.4117 45.7083 84.7233 45.965C84.035 46.2217 83.2067 46.35 82.2383 46.35ZM83.1133 43.2175C84.6417 43.2175 85.7558 42.7217 86.4558 41.73C87.1675 40.7267 87.5233 39.07 87.5233 36.76C87.5117 35.4417 87.3483 34.3333 87.0333 33.435C86.73 32.5367 86.2575 31.86 85.6158 31.405C84.9858 30.95 84.1692 30.7225 83.1658 30.7225C81.8825 30.7225 80.8267 31.195 79.9983 32.14C79.17 33.085 78.7558 34.625 78.7558 36.76C78.7558 38.8833 79.135 40.4933 79.8933 41.59C80.6517 42.675 81.725 43.2175 83.1133 43.2175Z" fill="#54B48C"/>
<path d="M106.724 46.35C105.499 46.35 104.303 46.1983 103.136 45.895C101.97 45.58 100.908 45.1192 99.9513 44.5125C99.0063 43.8942 98.2188 43.13 97.5888 42.22C96.9588 41.2983 96.5738 40.225 96.4338 39H100.844C101.03 39.8517 101.398 40.5692 101.946 41.1525C102.495 41.7358 103.177 42.1792 103.994 42.4825C104.822 42.7858 105.726 42.9375 106.706 42.9375C107.756 42.9375 108.701 42.7975 109.541 42.5175C110.393 42.2375 111.064 41.8292 111.554 41.2925C112.055 40.7558 112.306 40.0967 112.306 39.315C112.306 38.6267 112.125 38.0433 111.764 37.565C111.402 37.0867 110.895 36.6958 110.241 36.3925C109.6 36.0775 108.847 35.8267 107.984 35.64L103.329 34.625C101.45 34.24 99.963 33.4933 98.8663 32.385C97.7697 31.2767 97.2097 29.8008 97.1863 27.9575C97.1747 26.4292 97.5772 25.0992 98.3938 23.9675C99.2222 22.8242 100.348 21.9433 101.771 21.325C103.195 20.695 104.805 20.38 106.601 20.38C108.701 20.38 110.469 20.7242 111.904 21.4125C113.35 22.0892 114.441 22.9992 115.176 24.1425C115.923 25.2858 116.302 26.54 116.314 27.905H112.009C111.904 26.9017 111.6 26.1025 111.099 25.5075C110.609 24.9125 109.979 24.4867 109.209 24.23C108.439 23.9733 107.587 23.845 106.654 23.845C105.954 23.845 105.3 23.9267 104.694 24.09C104.087 24.2533 103.556 24.4925 103.101 24.8075C102.646 25.1225 102.29 25.5075 102.034 25.9625C101.789 26.4058 101.666 26.9133 101.666 27.485C101.666 28.3017 101.935 28.9667 102.471 29.48C103.02 29.9817 104.04 30.4075 105.534 30.7575L110.084 31.7725C111.495 32.0525 112.633 32.4725 113.496 33.0325C114.36 33.5925 115.019 34.2342 115.474 34.9575C115.929 35.6692 116.232 36.3983 116.384 37.145C116.535 37.8917 116.611 38.6033 116.611 39.28C116.611 40.5983 116.203 41.7942 115.386 42.8675C114.581 43.9408 113.438 44.7925 111.956 45.4225C110.486 46.0408 108.742 46.35 106.724 46.35ZM121.286 51.635V27.905H125.539L125.574 30.7575C125.807 30.3608 126.105 29.97 126.466 29.585C126.84 29.2 127.265 28.8558 127.744 28.5525C128.234 28.2492 128.776 28.01 129.371 27.835C129.966 27.6483 130.62 27.555 131.331 27.555C132.72 27.555 133.95 27.8875 135.024 28.5525C136.097 29.2058 136.937 30.215 137.544 31.58C138.162 32.945 138.471 34.6717 138.471 36.76C138.471 38.895 138.156 40.6742 137.526 42.0975C136.896 43.5208 136.015 44.5883 134.884 45.3C133.752 46 132.44 46.35 130.946 46.35C130.258 46.35 129.628 46.2567 129.056 46.07C128.496 45.8833 127.995 45.6267 127.551 45.3C127.108 44.9733 126.717 44.6175 126.379 44.2325C126.052 43.8475 125.778 43.445 125.556 43.025V51.635H121.286ZM130.001 43.165C131.285 43.165 132.346 42.6575 133.186 41.6425C134.026 40.6158 134.446 39.0117 134.446 36.83C134.446 34.94 134.05 33.4525 133.256 32.3675C132.475 31.2708 131.39 30.7225 130.001 30.7225C128.508 30.7225 127.388 31.3 126.641 32.455C125.895 33.5983 125.521 35.0567 125.521 36.83C125.521 37.9733 125.685 39.0292 126.011 39.9975C126.35 40.9542 126.845 41.7242 127.499 42.3075C128.164 42.8792 128.998 43.165 130.001 43.165ZM147.545 46.35C146.39 46.35 145.352 46.14 144.43 45.72C143.52 45.2883 142.803 44.6758 142.278 43.8825C141.764 43.0775 141.508 42.1033 141.508 40.96C141.508 38.965 142.225 37.46 143.66 36.445C145.107 35.43 147.411 34.8992 150.573 34.8525L153.268 34.7825V33.5575C153.268 32.6008 152.982 31.8542 152.41 31.3175C151.85 30.7692 150.975 30.5008 149.785 30.5125C148.91 30.5242 148.105 30.7342 147.37 31.1425C146.647 31.5392 146.168 32.21 145.935 33.155H142.313C142.383 31.9183 142.738 30.8858 143.38 30.0575C144.033 29.2175 144.926 28.5933 146.058 28.185C147.189 27.765 148.496 27.555 149.978 27.555C151.704 27.555 153.11 27.7825 154.195 28.2375C155.28 28.6925 156.079 29.3517 156.593 30.215C157.106 31.0667 157.363 32.0992 157.363 33.3125V46H153.775L153.443 42.745C152.789 44.11 151.961 45.055 150.958 45.58C149.966 46.0933 148.828 46.35 147.545 46.35ZM148.928 43.4625C149.453 43.4625 149.972 43.3692 150.485 43.1825C150.998 42.9842 151.465 42.7217 151.885 42.395C152.305 42.0567 152.638 41.6833 152.883 41.275C153.139 40.8667 153.268 40.4408 153.268 39.9975V37.145L151.045 37.18C149.948 37.1917 148.992 37.3083 148.175 37.53C147.358 37.7517 146.717 38.1075 146.25 38.5975C145.795 39.0758 145.568 39.7175 145.568 40.5225C145.568 41.4442 145.888 42.1675 146.53 42.6925C147.172 43.2058 147.971 43.4625 148.928 43.4625ZM170.202 27.555C171.613 27.555 172.856 27.835 173.929 28.395C175.003 28.955 175.86 29.7308 176.502 30.7225C177.155 31.7142 177.546 32.84 177.674 34.1H174.034C173.953 33.5517 173.754 33.0325 173.439 32.5425C173.124 32.0408 172.698 31.6383 172.162 31.335C171.625 31.02 170.978 30.8625 170.219 30.8625C168.866 30.8625 167.763 31.3642 166.912 32.3675C166.072 33.3708 165.652 34.9108 165.652 36.9875C165.652 38.9008 166.054 40.4233 166.859 41.555C167.664 42.6867 168.813 43.2525 170.307 43.2525C171.053 43.2525 171.689 43.0892 172.214 42.7625C172.751 42.4242 173.171 42.01 173.474 41.52C173.789 41.0183 173.993 40.5167 174.087 40.015H177.622C177.517 41.24 177.132 42.3308 176.467 43.2875C175.813 44.2442 174.95 44.9967 173.877 45.545C172.815 46.0817 171.59 46.35 170.202 46.35C168.545 46.35 167.069 45.9883 165.774 45.265C164.491 44.53 163.482 43.4683 162.747 42.08C162.012 40.68 161.644 38.9942 161.644 37.0225C161.644 35.1442 161.988 33.4992 162.677 32.0875C163.365 30.6642 164.351 29.5558 165.634 28.7625C166.918 27.9575 168.44 27.555 170.202 27.555ZM185.288 37.9325C185.277 38.9592 185.44 39.8692 185.778 40.6625C186.117 41.4558 186.618 42.08 187.283 42.535C187.948 42.9783 188.771 43.2 189.751 43.2C190.754 43.2 191.623 42.9783 192.358 42.535C193.105 42.08 193.601 41.3917 193.846 40.47H197.748C197.538 41.73 197.037 42.7975 196.243 43.6725C195.45 44.5475 194.487 45.2125 193.356 45.6675C192.236 46.1225 191.069 46.35 189.856 46.35C188.106 46.35 186.566 45.9825 185.236 45.2475C183.917 44.5008 182.885 43.4392 182.138 42.0625C181.403 40.6858 181.036 39.0467 181.036 37.145C181.036 35.29 181.374 33.645 182.051 32.21C182.727 30.7633 183.702 29.6258 184.973 28.7975C186.257 27.9692 187.797 27.555 189.593 27.555C191.378 27.555 192.877 27.9342 194.091 28.6925C195.316 29.4508 196.237 30.5125 196.856 31.8775C197.486 33.2308 197.801 34.8175 197.801 36.6375V37.9325H185.288ZM185.288 35.29H193.776C193.776 34.415 193.624 33.6275 193.321 32.9275C193.017 32.2158 192.551 31.6558 191.921 31.2475C191.302 30.8275 190.521 30.6175 189.576 30.6175C188.642 30.6175 187.855 30.845 187.213 31.3C186.572 31.755 186.087 32.3442 185.761 33.0675C185.434 33.7792 185.277 34.52 185.288 35.29Z" fill="#14281D"/>
<defs>
<clipPath id="clip0_11_51">
<rect width="48.4582" height="48.4582" fill="white"/>
</clipPath>
</defs>
</svg>
